<mxfile host="65bd71144e">
    <diagram id="epAIp3hOackiuC-lUEHP" name="第 1 页">
        <mxGraphModel dx="1247" dy="639" grid="1" gridSize="10" guides="1" tooltips="1" connect="1" arrows="1" fold="1" page="1" pageScale="1" pageWidth="850" pageHeight="850" background="#666666" math="0" shadow="1">
            <root>
                <mxCell id="0"/>
                <mxCell id="1" parent="0"/>
                <mxCell id="2" value="windows" style="whiteSpace=wrap;html=1;aspect=fixed;strokeColor=#F0F0F0;shadow=1;sketch=0;" parent="1" vertex="1">
                    <mxGeometry x="160" y="340" width="360" height="360" as="geometry"/>
                </mxCell>
                <mxCell id="25" value="" style="rounded=0;whiteSpace=wrap;html=1;shadow=1;fontColor=#E6E6E6;strokeColor=#F0F0F0;" vertex="1" parent="1">
                    <mxGeometry x="410" y="362.5" width="100" height="115" as="geometry"/>
                </mxCell>
                <mxCell id="3" value="&lt;font style=&quot;vertical-align: inherit;&quot;&gt;&lt;font style=&quot;vertical-align: inherit;&quot;&gt;云端仓库&lt;br&gt;&lt;/font&gt;&lt;/font&gt;" style="rounded=1;whiteSpace=wrap;html=1;strokeColor=#F0F0F0;shadow=1;sketch=0;" parent="1" vertex="1">
                    <mxGeometry x="354" y="140" width="120" height="60" as="geometry"/>
                </mxCell>
                <mxCell id="7" style="edgeStyle=none;html=1;exitX=1;exitY=0.5;exitDx=0;exitDy=0;fontColor=#E6E6E6;strokeColor=#F0F0F0;shadow=1;sketch=0;" parent="1" source="4" target="6" edge="1">
                    <mxGeometry relative="1" as="geometry"/>
                </mxCell>
                <mxCell id="10" style="edgeStyle=none;html=1;exitX=0.5;exitY=0;exitDx=0;exitDy=0;fontColor=#E6E6E6;strokeColor=#F0F0F0;shadow=1;sketch=0;" parent="1" source="4" edge="1">
                    <mxGeometry relative="1" as="geometry">
                        <mxPoint x="350" y="190" as="targetPoint"/>
                        <Array as="points">
                            <mxPoint x="264" y="190"/>
                        </Array>
                    </mxGeometry>
                </mxCell>
                <mxCell id="19" style="edgeStyle=none;html=1;exitX=1;exitY=0.5;exitDx=0;exitDy=0;entryX=0;entryY=0.5;entryDx=0;entryDy=0;fontColor=#E6E6E6;strokeColor=#F0F0F0;shadow=1;sketch=0;" parent="1" source="4" target="18" edge="1">
                    <mxGeometry relative="1" as="geometry"/>
                </mxCell>
                <mxCell id="4" value="用户一&lt;br&gt;" style="rounded=1;whiteSpace=wrap;html=1;strokeColor=#F0F0F0;shadow=1;sketch=0;" parent="1" vertex="1">
                    <mxGeometry x="174" y="360" width="180" height="120" as="geometry"/>
                </mxCell>
                <mxCell id="8" style="edgeStyle=none;html=1;exitX=1;exitY=0.5;exitDx=0;exitDy=0;fontColor=#E6E6E6;strokeColor=#F0F0F0;shadow=1;sketch=0;entryX=0.5;entryY=1;entryDx=0;entryDy=0;" parent="1" source="5" target="25" edge="1">
                    <mxGeometry relative="1" as="geometry">
                        <Array as="points">
                            <mxPoint x="455" y="640"/>
                        </Array>
                        <mxPoint x="460" y="490" as="targetPoint"/>
                    </mxGeometry>
                </mxCell>
                <mxCell id="9" style="edgeStyle=none;html=1;exitX=0;exitY=0.5;exitDx=0;exitDy=0;entryX=0;entryY=0.75;entryDx=0;entryDy=0;fontColor=#E6E6E6;strokeColor=#F0F0F0;shadow=1;sketch=0;" parent="1" source="5" target="3" edge="1">
                    <mxGeometry relative="1" as="geometry">
                        <Array as="points">
                            <mxPoint x="80" y="640"/>
                            <mxPoint x="80" y="185"/>
                        </Array>
                    </mxGeometry>
                </mxCell>
                <mxCell id="5" value="用户二" style="rounded=1;whiteSpace=wrap;html=1;strokeColor=#F0F0F0;shadow=1;sketch=0;" parent="1" vertex="1">
                    <mxGeometry x="190" y="610" width="120" height="60" as="geometry"/>
                </mxCell>
                <mxCell id="6" value="文件夹&lt;br&gt;（git仓库）" style="rounded=1;whiteSpace=wrap;html=1;strokeColor=#F0F0F0;shadow=1;sketch=0;" parent="1" vertex="1">
                    <mxGeometry x="420" y="425" width="80" height="45" as="geometry"/>
                </mxCell>
                <mxCell id="12" style="edgeStyle=none;html=1;startArrow=none;fontColor=#E6E6E6;strokeColor=#F0F0F0;shadow=1;sketch=0;" parent="1" source="13" target="6" edge="1">
                    <mxGeometry relative="1" as="geometry"/>
                </mxCell>
                <mxCell id="14" style="edgeStyle=none;html=1;entryX=1;entryY=1;entryDx=0;entryDy=0;startArrow=none;fontColor=#E6E6E6;strokeColor=#F0F0F0;shadow=1;sketch=0;" parent="1" source="15" target="4" edge="1">
                    <mxGeometry relative="1" as="geometry"/>
                </mxCell>
                <mxCell id="20" style="edgeStyle=none;html=1;entryX=1.003;entryY=0.774;entryDx=0;entryDy=0;entryPerimeter=0;startArrow=none;fontColor=#E6E6E6;strokeColor=#F0F0F0;shadow=1;sketch=0;" parent="1" source="22" target="2" edge="1">
                    <mxGeometry relative="1" as="geometry"/>
                </mxCell>
                <mxCell id="26" style="edgeStyle=none;sketch=0;html=1;exitX=0;exitY=0.25;exitDx=0;exitDy=0;entryX=1;entryY=0.25;entryDx=0;entryDy=0;shadow=1;fontColor=#E6E6E6;strokeColor=#F0F0F0;startArrow=none;" edge="1" parent="1" source="27" target="25">
                    <mxGeometry relative="1" as="geometry"/>
                </mxCell>
                <mxCell id="11" value="配置信息作用域" style="whiteSpace=wrap;html=1;strokeColor=#F0F0F0;shadow=1;sketch=0;" parent="1" vertex="1">
                    <mxGeometry x="660" y="380" width="120" height="60" as="geometry"/>
                </mxCell>
                <mxCell id="15" value="独立用户配置" style="text;html=1;align=center;verticalAlign=middle;resizable=0;points=[];autosize=1;strokeColor=#F0F0F0;shadow=1;sketch=0;" parent="1" vertex="1">
                    <mxGeometry x="540" y="490" width="90" height="20" as="geometry"/>
                </mxCell>
                <mxCell id="16" value="" style="edgeStyle=none;html=1;exitX=0;exitY=1;exitDx=0;exitDy=0;endArrow=none;entryX=1;entryY=-0.01;entryDx=0;entryDy=0;entryPerimeter=0;fontColor=#E6E6E6;strokeColor=#F0F0F0;shadow=1;sketch=0;" parent="1" source="11" target="15" edge="1">
                    <mxGeometry relative="1" as="geometry">
                        <mxPoint x="660" y="440" as="sourcePoint"/>
                        <mxPoint x="354" y="480" as="targetPoint"/>
                    </mxGeometry>
                </mxCell>
                <mxCell id="13" value="独立仓库配置" style="text;html=1;align=center;verticalAlign=middle;resizable=0;points=[];autosize=1;strokeColor=#F0F0F0;shadow=1;sketch=0;" parent="1" vertex="1">
                    <mxGeometry x="540" y="437.5" width="90" height="20" as="geometry"/>
                </mxCell>
                <mxCell id="17" value="" style="edgeStyle=none;html=1;endArrow=none;fontColor=#E6E6E6;strokeColor=#F0F0F0;shadow=1;sketch=0;" parent="1" source="11" target="13" edge="1">
                    <mxGeometry relative="1" as="geometry">
                        <mxPoint x="660" y="412.2641509433963" as="sourcePoint"/>
                        <mxPoint x="500" y="418.30188679245293" as="targetPoint"/>
                    </mxGeometry>
                </mxCell>
                <mxCell id="18" value="文件夹&lt;br&gt;（git仓库）" style="rounded=1;whiteSpace=wrap;html=1;strokeColor=#F0F0F0;shadow=1;sketch=0;" parent="1" vertex="1">
                    <mxGeometry x="420" y="370" width="80" height="45" as="geometry"/>
                </mxCell>
                <mxCell id="22" value="全局配置" style="text;html=1;align=center;verticalAlign=middle;resizable=0;points=[];autosize=1;strokeColor=#F0F0F0;shadow=1;sketch=0;" parent="1" vertex="1">
                    <mxGeometry x="620" y="575" width="60" height="20" as="geometry"/>
                </mxCell>
                <mxCell id="23" value="" style="edgeStyle=none;html=1;entryX=1.003;entryY=0.774;entryDx=0;entryDy=0;entryPerimeter=0;exitX=0.75;exitY=1;exitDx=0;exitDy=0;endArrow=none;fontColor=#E6E6E6;strokeColor=#F0F0F0;shadow=1;sketch=0;" parent="1" source="11" target="22" edge="1">
                    <mxGeometry relative="1" as="geometry">
                        <mxPoint x="750" y="440" as="sourcePoint"/>
                        <mxPoint x="521.0799999999999" y="618.6399999999999" as="targetPoint"/>
                    </mxGeometry>
                </mxCell>
                <mxCell id="27" value="配置全部仓库" style="text;html=1;align=center;verticalAlign=middle;resizable=0;points=[];autosize=1;strokeColor=default;fillColor=none;fontColor=#E6E6E6;" vertex="1" parent="1">
                    <mxGeometry x="540" y="382.5" width="90" height="20" as="geometry"/>
                </mxCell>
                <mxCell id="28" value="" style="edgeStyle=none;sketch=0;html=1;exitX=0;exitY=0.25;exitDx=0;exitDy=0;entryX=1;entryY=0.25;entryDx=0;entryDy=0;shadow=1;fontColor=#E6E6E6;strokeColor=#F0F0F0;endArrow=none;" edge="1" parent="1" source="11" target="27">
                    <mxGeometry relative="1" as="geometry">
                        <mxPoint x="660" y="395.0000000000001" as="sourcePoint"/>
                        <mxPoint x="510" y="391.2500000000001" as="targetPoint"/>
                    </mxGeometry>
                </mxCell>
                <mxCell id="30" value="仓库是共有的内容&lt;br&gt;配置信息是独立的windows用户" style="text;html=1;align=left;verticalAlign=middle;resizable=0;points=[];autosize=1;strokeColor=default;fillColor=none;fontColor=#E6E6E6;strokeWidth=3;" vertex="1" parent="1">
                    <mxGeometry x="540" y="250" width="180" height="30" as="geometry"/>
                </mxCell>
            </root>
        </mxGraphModel>
    </diagram>
</mxfile>